<svg width="161" height="155" viewBox="0 0 161 155" fill="none" xmlns="http://www.w3.org/2000/svg">
  <path fill-rule="evenodd" clip-rule="evenodd" d="M8.84 105.62c24.338 38.971 72.334 34.485 94.167 11.297.12-.129.12-.917-.356-.803-22.58 5.426-43.033-.609-56.858-13.195-29.767-27.106-26.603-66.302-3.519-89.95 4.082-4.183 9.47-7.447 14.355-10.398.647-.386.181-1.356-.545-1.152C14.8 13.133-15.191 67.141 8.84 105.62z" fill="#0078A8"/>
  <mask id="a" maskUnits="userSpaceOnUse" x="0" y="1" width="104" height="134">
    <path fill-rule="evenodd" clip-rule="evenodd" d="M8.84 105.62c24.338 38.971 72.334 34.485 94.167 11.297.12-.129.12-.917-.356-.803-22.58 5.426-43.033-.609-56.858-13.195-29.767-27.106-26.603-66.302-3.519-89.95 4.082-4.183 9.47-7.447 14.355-10.398.647-.386.181-1.356-.545-1.152C14.8 13.133-15.191 67.141 8.84 105.62z" fill="#fff"/>
  </mask>
  <path fill-rule="evenodd" clip-rule="evenodd" d="M90.798.024C44.622 1.354 24.643 44.867 34.03 75.298c.051.168.742.564.877.1C41.416 53.255 56.87 38.706 74.754 33.15c38.511-11.964 71.189 10.469 80.358 42.203 1.621 5.617 1.795 11.885 1.935 17.57.02.75 1.098.839 1.277.112C168.647 51.653 136.392-1.287 90.798.024z" fill="#EF4056"/>
  <mask id="b" maskUnits="userSpaceOnUse" x="31" y="0" width="130" height="94">
    <path fill-rule="evenodd" clip-rule="evenodd" d="M90.798.024C44.622 1.354 24.643 44.867 34.03 75.298c.051.168.742.564.877.1C41.416 53.255 56.87 38.706 74.754 33.15c38.511-11.964 71.189 10.469 80.358 42.203 1.621 5.617 1.795 11.885 1.935 17.57.02.75 1.098.839 1.277.112C168.647 51.653 136.392-1.287 90.798.024z" fill="#fff"/>
  </mask>
  <path fill-rule="evenodd" clip-rule="evenodd" d="M141.544 122.843c21.812-40.341-5.852-79.173-36.818-86.25-.17-.04-.854.357-.517.706 15.893 16.61 20.781 37.137 16.689 55.27-8.811 39.048-44.44 55.959-76.422 48.042-5.66-1.401-11.16-4.375-16.144-7.081-.657-.357-1.27.523-.733 1.042 30.626 29.468 92.41 28.102 113.945-11.729z" fill="#FFD530"/>
  <mask id="c" maskUnits="userSpaceOnUse" x="27" y="36" width="123" height="119">
    <path fill-rule="evenodd" clip-rule="evenodd" d="M141.544 122.843c21.812-40.341-5.852-79.173-36.818-86.25-.17-.04-.854.357-.517.706 15.893 16.61 20.781 37.137 16.689 55.27-8.811 39.048-44.44 55.959-76.422 48.042-5.66-1.401-11.16-4.375-16.144-7.081-.657-.357-1.27.523-.733 1.042 30.626 29.468 92.41 28.102 113.945-11.729z" fill="#fff"/>
  </mask>
</svg>
